<svg id="Sql--Streamline-Carbon" xmlns="http://www.w3.org/2000/svg" viewBox="0 0 16 16" height="16" width="16"><desc>SQL Streamline Icon: https://streamlinehq.com</desc><defs></defs><title>SQL</title><path d="m12 10.5 0 -6 -1 0 0 7 4 0 0 -1 -3 0z" fill="#000000" stroke-width="0.5"></path><path d="M9 4.5h-2a1 1 0 0 0 -1 1v5a1 1 0 0 0 1 1h0.5v1a1 1 0 0 0 1 1h1v-1h-1v-1h0.5a1 1 0 0 0 1 -1V5.5a1 1 0 0 0 -1 -1Zm-2 6V5.5h2v5Z" fill="#000000" stroke-width="0.5"></path><path d="M4 11.5H1v-1h3v-2H2a1 1 0 0 1 -1 -1v-2a1 1 0 0 1 1 -1h3v1H2v2h2a1 1 0 0 1 1 1v2a1 1 0 0 1 -1 1Z" fill="#000000" stroke-width="0.5"></path><path id="_Transparent_Rectangle_" d="M0 0h16v16H0Z" fill="none" stroke-width="0.5"></path></svg>